<svg version="1.1" id="Layer_1" xmlns="http://www.w3.org/2000/svg" x="0" y="0" viewBox="4.2 138.1 1192.8 219.8" style="enable-background:new 4.2 138.1 1192.8 219.8" xml:space="preserve"><style>.st0{fill:#4b6a88}</style><path class="st0" d="M306.8 139.1h21v9.5h-11.9V165h8.5v10.1h-8.5v17.2h11.9v9.1h-21v-62.3zM332.7 139.1h9.1v54h12.1v8.3h-21.3l.1-62.3zM358.8 139.1h21v9.5h-11.9V165h8.5v10.1h-8.5v17.2h11.9v9.1h-21v-62.3zM409 180v8.5c0 2.6-.6 4.7-1.6 6.7-.8 1.8-2 3.4-3.6 4.5a11 11 0 0 1-7.1 2.2 11.1 11.1 0 0 1-10.7-6.7c-1-2-1.4-4.2-1.6-6.7v-36.8c0-2.4.6-4.7 1.6-6.7.8-1.8 1.8-3.4 3.6-4.7a12.7 12.7 0 0 1 14.2 0c1.8 1.2 3 3 3.6 4.7 1 2 1.4 4.2 1.6 6.7v8.5h-8.5v-8.5c0-1.8-.4-3-1.4-4-.4-.4-1.2-.6-2.2-.6-1.6 0-2.4 1.2-2.8 2.4-.2.6-.4 1.4-.4 2.4v36.8c0 1.8.6 3 1.4 4 .4.4 1 .6 1.8.6 2 0 2.8-1 3.2-2.4.2-.6.4-1.4.4-2.4V180h8.5zM411.8 148.4v-9.3h26.5v9.5h-8.7v52.8h-9.1v-53h-8.7zM458.7 201.4l-4.7-26.3h-2.4v26.3h-9.1v-62.3h9.1c10.9 0 15.6 6.1 15.6 18 0 6.1-1.6 11.9-5.1 14.2l5.9 30.2h-9.3v-.1zm-7.2-34.8c1.2 0 3-.2 4.3-1.4 1.4-1.2 2.4-3.6 2.4-7.9s-1.2-6.7-2.4-7.9c-1.4-1.2-3-1.2-4.3-1.2v18.4zM497.2 188.5c0 2.6-.6 4.7-1.6 6.7-.8 1.8-2 3.4-3.6 4.5a11 11 0 0 1-7.1 2.2 11.1 11.1 0 0 1-10.7-6.7c-1-2-1.4-4.2-1.6-6.7v-36.8c0-2.4.6-4.7 1.6-6.7.8-1.8 1.8-3.4 3.6-4.7a12.7 12.7 0 0 1 14.2 0c1.8 1.2 3 3 3.6 4.7 1 2 1.4 4.2 1.6 6.7v36.8zm-9.1-36.7a6 6 0 0 0-1.2-4c-.4-.4-1.2-.6-1.8-.6-1.6 0-2.4 1.2-2.8 2.4-.2.6-.4 1.4-.4 2.4v36.8c0 1.8.4 3 1.2 4 .4.4 1 .6 1.8.6 1.6 0 2.4-1 2.8-2.4.2-.6.4-1.4.4-2.4v-36.8zM513.6 168.9l-.8-3h-.6v35.5h-8.5v-62.3h8.1l8.9 32.4.8 3h.6v-35.4h8.5v62.3h-8.1l-8.9-32.5zM537.7 139.1h9.1v62.3h-9.1v-62.3zM578.1 180v8.5c0 2.6-.6 4.7-1.6 6.7-.8 1.8-2 3.4-3.6 4.5a11 11 0 0 1-7.1 2.2 11.1 11.1 0 0 1-10.7-6.7c-1-2-1.4-4.2-1.6-6.7v-36.8c0-2.4.6-4.7 1.6-6.7.8-1.8 1.8-3.4 3.6-4.7a12.7 12.7 0 0 1 14.2 0c1.8 1.2 3 3 3.6 4.7 1 2 1.4 4.2 1.6 6.7v8.5h-8.5v-8.5c0-1.8-.4-3-1.4-4-.4-.4-1.2-.6-2.2-.6-1.6 0-2.4 1.2-2.8 2.4-.2.6-.4 1.4-.4 2.4v36.8c0 1.8.6 3 1.4 4 .4.4 1 .6 1.8.6 2 0 2.8-1 3.2-2.4.2-.6.4-1.4.4-2.4V180h8.5zM327.8 226.5h-11.9v16.4h8.5v9.5h-8.5v27.1h-9.1V217h21v9.5zM349.1 279.5l-4.7-26.3H342v26.3h-9.1V217h9.1c10.9 0 15.6 6.1 15.6 18 0 6.1-1.6 11.9-5.1 14.2l5.9 30.2-9.3.1zm-7.1-35c1.2 0 3-.2 4.3-1.4 1.4-1.2 2.4-3.6 2.4-7.9s-1.2-6.7-2.4-7.9c-1.4-1.2-3-1.2-4.3-1.2v18.4zM387.7 266.6c0 2.6-.6 4.7-1.6 6.7-.8 1.8-2 3.4-3.6 4.5a11 11 0 0 1-7.1 2.2 11.1 11.1 0 0 1-10.7-6.7c-1-2-1.4-4.2-1.6-6.7v-36.8c0-2.4.6-4.7 1.6-6.7.8-1.8 1.8-3.4 3.6-4.7a12.7 12.7 0 0 1 14.2 0c1.8 1.2 3 3 3.6 4.7 1 2 1.4 4.2 1.6 6.7v36.8zm-9.1-36.8a6 6 0 0 0-1.2-4c-.4-.4-1.2-.6-1.8-.6-1.6 0-2.4 1.2-2.8 2.4-.2.6-.4 1.4-.4 2.4v36.6c0 1.8.4 3 1.2 4 .4.4 1 .6 1.8.6 1.6 0 2.4-1 2.8-2.4.2-.6.4-1.4.4-2.4v-36.6zM404.1 246.8l-.8-3h-.6v35.4h-8.5v-62.3h8.1l8.9 32.4.8 3h.6v-35.4h8.5v62.5H413l-8.9-32.6zM425.1 226.5V217h26.5v9.5h-8.7v53h-9.1v-53h-8.7zM455.5 217h9.1v62.5h-9.1V217zM471.9 217h21v9.5H481v16.4h8.5v9.9H481V270h11.9v9.5h-21V217zM514.8 279.5l-4.7-26.3h-2.4v26.3h-9.3V217h9.1c10.9 0 15.6 6.1 15.6 18 0 6.1-1.6 11.9-5.1 14.2l5.9 30.2-9.1.1zm-7.1-35c1.2 0 3-.2 4.3-1.4 1.4-1.2 2.4-3.6 2.4-7.9s-1.2-6.7-2.4-7.9c-1.4-1.2-3-1.2-4.3-1.2v18.4zM327.8 304.4h-11.9v16.4h8.5v9.5h-8.5v27.1h-9.1v-62.5h21v9.5zM356.7 344.5c0 2.6-.6 4.7-1.6 6.7-.8 1.8-2 3.4-3.6 4.5a11 11 0 0 1-7.1 2.2 11.1 11.1 0 0 1-10.7-6.7c-1-2-1.4-4.2-1.6-6.7v-36.8c0-2.4.6-4.7 1.6-6.7.8-1.8 1.8-3.4 3.6-4.7a12.7 12.7 0 0 1 14.2 0c1.8 1.2 3 3 3.6 4.7 1 2 1.4 4.2 1.6 6.7v36.8zm-9.1-36.8a6 6 0 0 0-1.2-4c-.4-.4-1.2-.6-1.8-.6-1.6 0-2.4 1.2-2.8 2.4-.2.6-.4 1.4-.4 2.4v36.8c0 1.8.4 3 1.2 4 .4.4 1 .6 1.8.6 1.6 0 2.4-1 2.8-2.4.2-.6.4-1.4.4-2.4v-36.8zM387.7 294.9v49.6c0 2.6-.6 4.7-1.6 6.7-.8 1.8-2 3.4-3.6 4.5a11 11 0 0 1-7.1 2.2 11.1 11.1 0 0 1-10.7-6.7c-1-2-1.4-4.2-1.6-6.7v-49.6h9.1v49.6c0 1.8.4 3 1.2 4 .4.4 1 .6 1.8.6 1.6 0 2.4-1 2.8-2.4.2-.6.4-1.4.4-2.4v-49.4h9.3zM404.5 324.7l-.8-3h-.6v35.4h-8.5v-62.3h8.1l8.9 32.4.8 3h.6v-35.4h8.5v62.5h-8.1l-8.9-32.6zM428.8 357.3v-62.5h7.3c8.5 0 13 1.8 15.6 6.5 2.4 4.7 2.8 12.7 2.8 24.7 0 12.3-.4 20-2.8 24.7s-7.1 6.5-15.6 6.5l-7.3.1zm9.1-9.3c3.2 0 4.9-.4 5.9-3.4.4-1.4.8-3.6.8-6.7v-24.2c0-3-.4-5.1-.8-6.7-1-3-2.8-3.4-5.9-3.4V348zM457.5 357.3l9.5-62.5h11.3l9.5 62.5h-9.1l-1.8-12.7H468l-1.8 12.7h-8.7zm15.6-42.1-.2-1.6h-.6l-.2 1.6-2.6 19.8h6.3l-2.7-19.8zM486.3 304.4v-9.5h26.5v9.5h-8.7v53H495v-53h-8.7zM518.2 294.9h9.1v62.5h-9.1v-62.5zM558.3 344.5c0 2.6-.6 4.7-1.6 6.7-.8 1.8-2 3.4-3.6 4.5a11 11 0 0 1-7.1 2.2 11.1 11.1 0 0 1-10.7-6.7c-1-2-1.4-4.2-1.6-6.7v-36.8c0-2.4.6-4.7 1.6-6.7.8-1.8 1.8-3.4 3.6-4.7a12.7 12.7 0 0 1 14.2 0c1.8 1.2 3 3 3.6 4.7 1 2 1.4 4.2 1.6 6.7v36.8zm-9.1-36.8a6 6 0 0 0-1.2-4c-.4-.4-1.2-.6-1.8-.6-1.6 0-2.4 1.2-2.8 2.4-.2.6-.4 1.4-.4 2.4v36.8c0 1.8.4 3 1.2 4 .4.4 1 .6 1.8.6 1.6 0 2.4-1 2.8-2.4.2-.6.4-1.4.4-2.4v-36.8zM574.7 324.7l-.8-3h-.6v35.4h-8.5v-62.3h8.1l8.9 32.4.8 3h.6v-35.4h8.5v62.5h-8.1l-8.9-32.6z"/><g><path class="st0" d="M4.2 139.1v218.2h287v-62.4H97.7v-15.6h193.5V217H97.7v-15.6h193.5v-62.3zM607.3 139.1v218.2h93.5v-78h193.5V217H700.8v-15.6h193.5v-62.3zM910 139.1v218.2h93.5v-78H1197V217h-193.5v-15.6H1197v-62.3z"/></g></svg>