<svg id="a" data-name="Ebene 1" xmlns="http://www.w3.org/2000/svg" viewBox="0 0 1050 200"><defs><linearGradient id="b" data-name="Unbenannter Verlauf 13" x1="525" y1="0" x2="525" y2="200" gradientUnits="userSpaceOnUse"><stop offset="0" stop-color="#0072fd"/><stop offset="1" stop-color="#00c6ff"/></linearGradient><style>.j{fill:#fff}</style></defs><path style="fill:url(#b)" d="M0 0h1050v200H0z"/><path class="j" d="M206.2 136c-5.2-5.2-7-7.7-10-7.7-2.1 0-3.3.6-4.7 1.8l-12.3-12a56.1 56.1 0 0 0 21 3.4 35 35 0 0 0 22-6.3 21 21 0 0 0 8-17.5c0-3.7-.6-7-2-9.7a20.9 20.9 0 0 0-6.2-7.5 61.7 61.7 0 0 0-13.4-7c-5.4-2.3-9.2-4.1-11.3-5.5a14 14 0 0 1-4.5-4.3c-.9-1.6-1.3-3.4-1.3-5.6 0-3.1 1.1-5.7 3.4-7.6 2.3-1.9 5.6-2.9 10-2.9 5.8 0 12.4 1.6 19.8 4.7l4.3-11c-7.9-3.6-15.8-5.3-23.8-5.3s-14.9 2-19.8 6c-1.3 1-2.4 2.1-3.4 3.4A60.6 60.6 0 0 0 84 38.1v-1h-47v83.3h13.5V86.1h20a60.7 60.7 0 0 0 97.5 38.3l14.8 14.5c-1.8 1.7-2.5 2.9-2.4 5.4.2 3.5 2.8 5 8 10.2l35.7 35.6h3l15.9-15.4v-2.1s-26.5-26.3-36.7-36.7Zm-15.3-56.7c2.3 1.3 4.9 2.6 7.8 3.8 7.4 3 12.2 5.5 14.6 7.7 2.3 2.1 3.5 4.8 3.5 7.9a10 10 0 0 1-3.9 8.2c-2.5 2-6.5 3.1-11.9 3.1a51.4 51.4 0 0 1-17.9-3.3 60.1 60.1 0 0 0 7.8-27.4ZM50.5 48.7h26.3a60.2 60.2 0 0 0-7 26H50.5v-26ZM177 115.9l-.1-.1.1-.2v.3Zm-46.7 9.2a48.1 48.1 0 1 1 .2-96.3 48.1 48.1 0 0 1-.2 96.3Z"/><path id="c" data-name="path24" class="j" d="M294.4 97.8a21 21 0 0 1-8 17.4c-5.3 4.2-12.7 6.3-22.1 6.3s-17.1-1.5-23.1-4.4v-12.8a63.4 63.4 0 0 0 24 5.7c5.4 0 9.4-1 11.9-3a10 10 0 0 0 3.9-8.3c0-3.1-1.2-5.8-3.6-8a53.3 53.3 0 0 0-14.5-7.6c-7.6-3-13-6.6-16-10.5-3.2-4-4.7-8.7-4.7-14.3 0-6.9 2.4-12.4 7.4-16.3 4.9-4 11.5-6 19.8-6s16 1.7 23.8 5.2l-4.3 11.1a52 52 0 0 0-19.8-4.7c-4.4 0-7.8 1-10 3a9.3 9.3 0 0 0-3.4 7.5c0 2.2.4 4 1.3 5.6 1 1.5 2.4 3 4.5 4.3 2.1 1.4 5.9 3.2 11.3 5.4 6 2.6 10.6 5 13.4 7.1 2.9 2.2 5 4.7 6.3 7.5 1.3 2.7 2 6 2 9.8Z"/><path id="d" data-name="path26" class="j" d="M132.5 82.3c0 3-.8 5.3-2.3 7a8.3 8.3 0 0 1-6.4 2.5c-1.8 0-3.3-.4-4.6-1.2a7.6 7.6 0 0 1-3-3.3c-.7-1.4-1-3.1-1-5 0-3 .7-5.3 2.2-7 1.5-1.7 3.7-2.5 6.4-2.5s4.8.9 6.3 2.6c1.6 1.7 2.4 4 2.4 6.9Zm-13.4 0c0 4.2 1.6 6.3 4.7 6.3s4.7-2.1 4.7-6.3-1.6-6.3-4.7-6.3c-1.6 0-2.8.5-3.6 1.6-.7 1-1 2.6-1 4.7Z"/><path id="e" data-name="path28" class="j" d="M146.5 72.8c2.3 0 4 .8 5.3 2.5 1.3 1.6 2 4 2 7s-.7 5.3-2 7c-1.3 1.6-3 2.5-5.4 2.5s-4-.9-5.4-2.5h-.2l-.7 2.1h-3V65.7h4v6.1a50 50 0 0 1-.2 3.7h.1c1.3-1.8 3.1-2.7 5.5-2.7Zm-1 3.2c-1.6 0-2.7.4-3.4 1.4-.7.9-1 2.4-1 4.6v.3c0 2.2.3 3.8 1 4.8s1.9 1.5 3.5 1.5c1.3 0 2.4-.5 3-1.6.8-1.1 1.2-2.7 1.2-4.8 0-4.1-1.5-6.2-4.3-6.2Z"/><path id="f" data-name="path30" class="j" d="M170.8 86.2c0 1.8-.7 3.2-2 4.2s-3.2 1.4-5.6 1.4-4.4-.4-5.9-1.1v-3.4c2.2 1 4.2 1.5 6 1.5 2.4 0 3.6-.7 3.6-2.2 0-.4-.1-.8-.4-1.1-.2-.3-.7-.7-1.3-1l-2.5-1.1c-2.1-.8-3.5-1.7-4.3-2.5a4.6 4.6 0 0 1-1.1-3.2c0-1.5.6-2.7 1.9-3.6 1.2-.9 3-1.3 5.1-1.3s4.2.4 6.1 1.3l-1.2 3c-2-.9-3.6-1.3-5-1.3-2 0-3 .6-3 1.8 0 .5.2 1 .7 1.4.6.4 1.7 1 3.5 1.7 1.5.6 2.6 1 3.3 1.6.7.5 1.2 1 1.5 1.7.4.6.5 1.3.5 2.2Z"/><path id="g" data-name="path32" class="j" d="M96.7 80.5c1-.3 2 .4 3 2 2 3 3 4.5 3.5 4.4.4-.1.6-.5.9-1.2 4-14.7 8.3-26.9 12.5-36.5 1.1-2.5 3.4-4.3 7-5.3.8-.2 1.3-.3 1.7-.2.3 0 .5.2.6.5 0 .4-.2 1.3-.8 2.7-6.7 16-12.5 32.4-17.5 49.3-.3 1.2-1.4 2-3.2 2.6-1.9.6-3 .8-3.4.8-1-.2-2.6-2-4.8-5.5a38.4 38.4 0 0 1-4-7.5c-.3-1.2.3-2.6 1.8-4.2 1-1 1.9-1.7 2.7-2Z"/><text transform="translate(350.2 86.5)" style="font-family:Roboto-Bold,Roboto;font-size:50px;fill:#fff"><tspan x="0" y="0">Job board e</tspan><tspan x="265.9" y="0" style="letter-spacing:0">x</tspan><tspan x="290.9" y="0">clusively for </tspan><tspan x="0" y="60">paid free &amp; open sou</tspan><tspan x="462.6" y="60" style="letter-spacing:0">r</tspan><tspan x="480.4" y="60">ce jobs</tspan></text></svg>