<svg viewBox="0 0 16 16" xmlns="http://www.w3.org/2000/svg" xmlns:xlink="http://www.w3.org/1999/xlink"><style>:root>svg{display:none}:root>svg:target{display:block}</style><svg viewBox="0 0 14 14" id="alcohol"><path d="M3 0C2 0 2 .467 2 1v2c0 1-2 1-2 3v7c0 .566.467 1 1 1h4c.6 0 1-.4 1-1V6c0-2-2-2-2-3V1c0-.566 0-1-1-1zm4 5c0 3 .471 5 3 5v2c0 .667-1 1-1.5 1-1 0-1.5 0-1.5 1h7c0-1-.5-1-1.5-1-.5 0-1.5-.366-1.5-1v-2c2.471 0 3-2 3-5H7z"/></svg><svg version="1.0" viewBox="0 0 14 14" id="art"><path d="M7 0a7 7 0 000 14 1.164 1.164 0 00.863-1.95 1.154 1.154 0 01-.29-.773c0-.645.52-1.166 1.165-1.166h1.373A3.89 3.89 0 0014 6.223C14 2.785 10.866 0 7 0zm1.934 1.305a1.39 1.39 0 011.388 1.388 1.39 1.39 0 01-1.388 1.391 1.39 1.39 0 01-1.39-1.39 1.39 1.39 0 011.39-1.39zm-3.895.02a1.39 1.39 0 011.39 1.39 1.39 1.39 0 01-1.39 1.389 1.39 1.39 0 01-1.389-1.39 1.39 1.39 0 011.39-1.39zM2.707 4.446a1.39 1.39 0 011.389 1.39 1.39 1.39 0 01-1.389 1.39 1.39 1.39 0 01-1.389-1.39 1.39 1.39 0 011.389-1.39zm8.559 0a1.39 1.39 0 011.388 1.39 1.39 1.39 0 01-1.388 1.39 1.39 1.39 0 01-1.389-1.39 1.39 1.39 0 011.389-1.39z"/></svg><svg viewBox="0 0 14 14" id="bag"><path d="M6 1C5 1 4 2.021 4 3v1h-.75v9h7.5V4H10V3c0-1-1.01-2-2-2zm.5 1.25h1c.86 0 1.25.6 1.25 1.25V4h-3.5v-.5c0-.63.306-1.25 1.25-1.25zM2 4C.643 4 0 4.643 0 6v5c0 1.357.748 2 2 2zm10 0v9c1.252 0 2-.748 2-2V6c0-1.315-.622-2-2-2z"/></svg><svg viewBox="0 0 14 14" id="bakery"><path d="M6.75 3l1.5 4h-1.5l-1.5-4H3.5L5 7H3.5L2.177 3.576C1.29 4.264 0 6.198 0 8v2c0 .593.424 1 1 1h12a.97.97 0 001-1V8c0-2.464-1.727-4.415-4-5l1.5 4H10L8.5 3H6.75z"/></svg><svg viewBox="0 0 14 14" id="beauty"><path d="M5 0C4 0 3 .469 2 1.469s-2 2-2 3c.667 0 1.333.375 2 .375 1.524 0 1.934-1.31 3-2.375.539-.351.99-.707 2.469-.531C9.029 2.27 12 3.46 14 4.874c-1.609-1.65-3.49-3.464-6-4.406C7-.026 6 0 5 0zm7.344 5.156l-4.031 1.75c-3.34.548-7.178-.735-7.063-.593.045.054.082.101.125.156V6.5L0 10l2.594-2L3 12l1.969-3.188c.182.032.358.073.562.094L7 12l1.094-3.094c.337-.059.636-.171.937-.281L11 11l.031-3.656c.057-.059.102-.127.156-.188L14 9l-1.875-3.281c.08-.181.16-.377.219-.563z"/></svg><svg version="1.0" viewBox="0 0 14 14" id="bed"><path d="M13.301 1.531c-.275 0-.699.21-.699.469v6H0v3h1.4V9.398h11.201V11H14V2c0-.259-.424-.469-.699-.469zM.5 4.6a.5.5 0 00-.5.5V7h11.602V4.6H.5z"/></svg><svg viewBox="0 0 14 14" id="beverages"><path d="M3 0C2 0 2 .502 2 2c0 1-2 5-2 6v5c0 .566.467 1 1 1h4c.6 0 1-.4 1-1V8c0-1-2-5-2-6C4 .469 4 0 3 0zm7.875 1l-1 4H11l.75-3H14V1zM7 6l1 7s0 1 1 1h2c1 0 1-1 1-1l1-7z"/></svg><svg viewBox="0 0 14 14" id="bicycle"><path d="M8 1.5v.875l1.25.781V4.25H5V3.5h.5c1 0 1-1 0-1h-2c-1 0-1 1 0 1H4v.75L3.062 6H3C1.388 6 0 7.388 0 9s1.388 3 3 3 3-1.388 3-3a2.9 2.9 0 00-.188-1h.438c.75 0 .923-.454 1.188-.719l1.78-2.031.532 1.031C8.727 6.766 8 7.825 8 9c0 1.612 1.388 3 3 3s3-1.388 3-3-1.388-3-3-3c-.031 0-.062-.001-.094 0L10 4.25V2.656L8 1.5zM4.781 5.25h3.125L6.344 7H5.219c-.019 0-.044.002-.063 0a3.028 3.028 0 00-.906-.688c-.012-.018-.02-.043-.031-.062l.562-1zM3 7c1.006 0 2 .994 2 2s-.994 2-2 2-2-.994-2-2 .994-2 2-2zm8 0c1.006 0 2 .994 2 2s-.994 2-2 2-2-.994-2-2 .994-2 2-2z"/></svg><svg viewBox="0 0 3.7 3.7" id="bookmaker"><path d="M0 0v.794h.005c.151 0 .26.118.26.264A.261.261 0 010 1.323v.794h.53v-.265H.264v-.34a.527.527 0 00.264-.454.527.527 0 00-.264-.454v-.34H3.44v.34a.527.527 0 000 .912v.336h-.265v.265h.53v-.795h-.01c-.15.001-.255-.118-.255-.264 0-.146.1-.264.251-.264H3.704V0H0z"/><path d="M1.852.794c-.311 0-.565.31-.565.694 0 .273.129.51.315.622.056.034-.005.123-.046.065a.525.525 0 00-.423-.234c-.311 0-.564.311-.564.695 0 .383.253.693.564.693.31 0 .562-.306.565-.685 0-.067.084-.074.084.017 0 .142-.111.899-.17 1.043a.98.98 0 01.24-.037.98.98 0 01.24.037c-.059-.144-.17-.9-.17-1.043 0-.09.084-.084.084-.017.004.38.256.685.565.685.312 0 .565-.31.565-.693 0-.384-.253-.695-.565-.695-.168 0-.32.09-.423.234-.04.058-.102-.03-.046-.065.187-.113.315-.35.315-.622 0-.383-.253-.694-.565-.694z"/></svg><svg viewBox="0 0 16 16" id="books"><path d="M3.592 2.877A1.844 1.844 0 003 3v8s3.188-.125 4 3V5.6C6.38 4.294 4.981 2.82 3.592 2.877zM7 14c-2.063-1.594-5-2-5-2V4.4L1 4v9l6 2h2l6-2V4l-1 .4v8L9 14c-.667-.255-1.444-.21-2 0zm6-11c-1.993-.107-4.293 1.09-5.5 2.12v8.464c1.115-.925 3.114-2.141 5.5-2.385z"/></svg><svg version="1.0" id="butcher" viewBox="0 0 14 14"><defs id="defs4"><clipPath id="clipoutline2" clipPathUnits="userSpaceOnUse"><path d="M55.8 12l.76.16c8.84-2.94 28.68 8.64 24.26 18.96-1.12 1.62-.93 4.5.42 6.31L56.43 62.25c-1.39-1.39-4.48-1.36-5.9 0L9.5 101.63c-3.74 3.59-.8 6.64.78 8.25l7.36 7.36c1.61 1.6 5.86 3.76 8.88.56l38.72-40.81c1.35-1.42 1.36-4.47 0-5.87 0 0 .01-.02 0-.02l24.91-24.9c2.63 2.37 5.114 2.575 7.47 1.93 4.55-1.245 7.087 3.207 9.81 6.46l-1.23 1.21c-1.82 1.84-1.65 4.94.39 6.98s5.15 2.21 6.97.39l8.14-8.13c1.82-1.84 1.65-4.94-.4-6.97-1.84-1.85-4.51-2.09-6.37-.77-5.58-6.26-2.65-7.2-10.01-15.35L91.13 17.86C81.2 8.12 68.3 8.13 55.8 12z" id="outline2"/></clipPath><clipPath id="clipoutline1" clipPathUnits="userSpaceOnUse"><path d="M22.42 17.2l12.96 12.95-2.5 8.78-8.78 2.5-12.96-12.96-5.86 5.86 14.89 21.46 17.56-3.34 61.63 65.62c9.44 9.51 22.17-4.75 13.34-12.87L46.85 42.92l4.01-17.76-22.14-14.27zm81.06 91.97a4.297 4.297 0 016.08 0 4.297 4.297 0 010 6.08 4.316 4.316 0 01-6.08 0 4.297 4.297 0 010-6.08z" id="outline1"/></clipPath><marker viewBox="0 0 10 10" refY="5" refX="10" orient="auto" markerWidth="4" markerUnits="strokeWidth" markerHeight="3" id="ArrowStart"><path id="path2295" d="M10 0L0 5l10 5z"/></marker><marker viewBox="0 0 10 10" refY="5" refX="0" orient="auto" markerWidth="4" markerUnits="strokeWidth" markerHeight="3" id="ArrowEnd"><path id="path2292" d="M0 0l10 5-10 5z"/></marker><style type="text/css" id="style6"/></defs><g transform="matrix(.77534 0 0 .77399 1.002 -801.297)" id="layer1" display="inline" fill="#fff" fill-opacity="1" fill-rule="evenodd" stroke="none" stroke-width=".31" stroke-miterlimit="4" stroke-dasharray="none" stroke-opacity="1"><path d="M6.792 1048.037s-1.337-1.567-2.726-3.847c-1.102-1.808-2.122-4.19-2.215-4.443.752-.548 4.593-2.277 5.371-2.447.227.875.581 2.588 1.33 4.252.774 1.72 1.705 3.06 2.052 3.513-.83.782-3.812 2.972-3.812 2.972zm2.617-.959c.096.802 2.796 4.527 3.71 5.203.352.26.598.048 1.197-.375.598-.423.824-.783.605-1.293-.447-1.045-2.405-4.8-3.325-5.4-.884-1.288-1.626-2.262-2.355-4.047-.754-1.847-1.235-3.723-1.524-4.826-1.026.298-2.727 1.019-3.773 1.501-1.165.538-1.999 1.062-2.925 1.56.293.85.994 2.949 2.456 5.215 1.156 1.791 2.128 3.217 3.223 4.302zm-4.06-7.452c0-.415.354-.75.791-.75.438 0 .793.335.793.75 0 .414-.355.75-.793.75-.437 0-.792-.336-.792-.75z" id="path3670"/><path id="path4008" d="M6.792 1048.037s-1.337-1.567-2.726-3.847c-1.102-1.808-2.122-4.19-2.215-4.443.752-.548 4.593-2.277 5.371-2.447.227.875.581 2.588 1.33 4.252.774 1.72 1.705 3.06 2.052 3.513-.83.782-3.812 2.972-3.812 2.972zm2.617-.959c.096.802 2.796 4.527 3.71 5.203.352.26.598.048 1.197-.375.598-.423.824-.783.605-1.293-.447-1.045-2.405-4.8-3.325-5.4-.884-1.288-1.626-2.262-2.355-4.047-.754-1.847-1.235-3.723-1.524-4.826-1.026.298-2.727 1.019-3.773 1.501-1.165.538-1.999 1.062-2.925 1.56.293.85.994 2.949 2.456 5.215 1.156 1.791 2.128 3.217 3.223 4.302zm-4.06-7.452c0-.415.354-.75.791-.75.438 0 .793.335.793.75 0 .414-.355.75-.793.75-.437 0-.792-.336-.792-.75z"/></g><path d="M6.268 9.868S5.232 8.655 4.154 6.891c-.854-1.4-1.645-3.243-1.717-3.44.583-.423 3.561-1.761 4.165-1.893.175.677.45 2.003 1.03 3.291.6 1.33 1.323 2.368 1.592 2.719-.644.606-2.956 2.3-2.956 2.3zm2.029-.742c.075.62 2.168 3.504 2.876 4.027.273.202.464.037.928-.29.464-.327.64-.606.47-1-.347-.81-1.865-3.715-2.578-4.18-.686-.997-1.26-1.75-1.826-3.133C7.582 3.12 7.21 1.67 6.985.815c-.796.231-2.114.789-2.925 1.162-.903.416-1.55.822-2.268 1.207.227.659.77 2.283 1.904 4.037.897 1.386 1.65 2.49 2.5 3.33zM5.149 3.358c0-.32.275-.58.614-.58.34 0 .614.26.614.58 0 .321-.275.581-.614.581-.34 0-.614-.26-.614-.58z" id="path4036" fill-opacity="1" fill-rule="evenodd" stroke="none" stroke-width=".24" stroke-miterlimit="4" stroke-dasharray="none" stroke-opacity="1"/></svg><svg viewBox="0 1 14 14" id="car"><path d="M0 10.5A1.5 1.5 0 001.5 12h11a1.5 1.5 0 001.5-1.5v-3A1.5 1.5 0 0012.5 6h-11A1.5 1.5 0 000 7.5zm1.6-2a.9.9 0 110 .01zm9 0a.9.9 0 110 .01z" fill-rule="evenodd"/><path d="M1 11h2v3H1zM11 11h2v3h-2zM2 6V3.5A1.5 1.5 0 013.5 2h7A1.5 1.5 0 0112 3.5V6h-1.5V4.5a1 1 0 00-1-1h-5a1 1 0 00-1 1V6z"/></svg><svg viewBox="0 0 14 14" id="car_parts"><path d="M9 3V1h3v2zM2 3V1h3v2zM0 3v10h14V3zm3.446 2H5v2h2v1.578H5V10.6l-1.563.033.025-2.104-2.07.016L1.421 7H3.43zM9 7h4v1.61l-4-.015z" fill-rule="evenodd"/></svg><svg viewBox="0 0 14 14" id="car_repair"><path d="M2.744 0C2.034 0 1.374.412 1 1h2.37l.622 1-.623 1H1.002c.374.588 1.033.999 1.742 1 .758 0 1.412-.404 1.768-1h4.666c.355.596 1.01 1 1.77 1C12.08 4 13 3.105 13 2s-.919-2-2.053-2c-.758 0-1.414.404-1.77 1H4.513c-.356-.596-1.01-1-1.768-1zm7.578 1h1.25l.623 1-.623 1h-1.25L9.7 2l.623-1zM4 6L3 9c-.473 0-1 .384-1 1v3h1s0 1 1 1 1-1 1-1h4s0 1 1 1 1-1 1-1h1v-3c0-.52-.455-1-1-1l-1-3H4zm1 1h4l.625 2h-5.25L5 7zm-1 3.25a.75.75 0 110 1.5.75.75 0 010-1.5zm6 0a.75.75 0 110 1.5.75.75 0 010-1.5z"/></svg><svg viewBox="0 0 14 14" id="carpet"><path d="M12 0c-1.108 0-2 .892-2 2v10c0 1.108.892 2 2 2s2-.892 2-2V2c0-1.108-.892-2-2-2zM0 2v1h1v1.2H0v1h1v1.2H0v1h1v1.2H0v1h1v1.2H0v1h1V13H0v1h9V2H0zm2 1l2 1 2-1 2 1v1L6 4 4 5 2 4V3zm0 2.666l2 1 2-1 2 1v1l-2-1-2 1-2-1v-1zm0 2.668l2 1 2-1 2 1v1l-2-1-2 1-2-1v-1zM2 11l2 1 2-1 2 1v1l-2-1-2 1-2-1v-1zm10 0a1 1 0 110 2 1 1 0 010-2z"/></svg><svg viewBox="0 0 14 14" id="charity"><path d="M5 0C4 0 4 0 4 1l.01 3H1v9c0 1 0 1 1 1h10c1 0 1 0 1-1V4h-2.96L10 1c0-1 0-1-1-1H5zm0 1h4v3H5V1zm.178 4.498c.517-.003.625.058.93.225.37.203.75.958.83 1.267l.048.192.12-.264c.731-1.602 2.84-2.049 3.595-.283.21.489.267 1.49.055 2.062-.277.746-.796 1.316-1.996 2.188-.787.571-1.678 1.435-1.74 1.556-.072.141-.005.023-.323-.334-.167-.187-.585-.552-.93-.812-1.018-.77-1.156-.88-1.57-1.262-.763-.702-1.087-1.408-1.086-2.365 0-.467.032-.647.162-.922.222-.467.55-.815.967-1.027.296-.15.443-.218.938-.221z"/></svg><svg viewBox="0 0 14 14" id="chemist"><path d="M13.516 13c0-12 .023-10.048.023-12 0-1-.047-1-1.539-1v13.039c.048.964 0 .961.719.961.765 0 .797 0 .797-1zM2.508 11.625c1.989.633 3.127.633 5.093-.07L7 4c-2 .281-2 .305-4 0zM4.32 0h1.399l.554 3c-1 .305-1.554.305-2.554 0zM2.023 14l.235-1h5.5l.257 1zM9.484 0h1.96v.61h-1.96zm0 1h1.96v.61h-1.96zm0 1h1.96v.61h-1.96zm0 1h1.96v.61h-1.96zm0 1h1.96v.61h-1.96z" fill-rule="evenodd"/></svg><svg viewBox="0 0 14 14" id="clothes"><path d="M3 1L0 3l1 3.35L3 5v8h8V5l2 1.35L14 3l-3-2H9c0 1-1 2-2 2S5 2 5 1z"/></svg><svg viewBox="0 0 14 14" id="coffee"><path d="M12.384.563s-.755-.707-2-.537c-1.246.17-4.71 1.83-6.32 3.258C2.454 4.712.24 7.002.098 8.524c-.142 1.52-.374 2.18 1.309 3.86 1.682 1.68 5.657.077 5.657.077s3.498-1.596 5.218-4.554c1.72-2.958 1.66-4.21 1.66-4.21s.239-1.094-.251-2.052C13.2.688 12.5.778 12.5.778s-.857.56-1.511 1.281c-.654.721-.643.743-.968 1.03-.326.289-.828.4-1.203.746-.374.347-1.29 2.608-2.974 3.996C4.16 9.22 3.297 9.554 2.878 10.015c-.42.46-.507.944-.823.854-.317-.09-.186-1.75.417-2.267.603-.517.765-.416 1.635-.984.87-.569 1.872-3.313 4.318-5.174 2.446-1.86 3.96-1.881 3.96-1.881z"/></svg><svg viewBox="0 0 14 14" id="computer"><path d="M3 1c-.485 0-1 .517-1 1v6c0 .483.517 1 1 1h8c.483 0 1-.517 1-1V2c0-.483-.517-1-1-1H3zm0 1h8v6H3V2zm-1 8c-.25 0-.322.148-.447.398L.465 13.53C.279 13.78.749 14 1 14h12c.25 0 .62-.25.535-.47l-1.119-3.163c-.125-.22-.165-.367-.416-.367H2z"/></svg><svg viewBox="0 0 14 14" id="confectionery"><path d="M.401 7C.388 6 2 4 4 4c1 .032 2 1.587 3 1.54C8 5.655 9 3.994 10 4c2 0 3.571 2 3.574 3h-1.043C12 6 11 5.487 10 5.446 9 5.552 8 7.006 7 7c-1 .027-2-1.391-3-1.46C3 5.511 2 6 1.58 7H.4zM9 2a2 2 0 11-.06-.487M3 13L1 8c.72.144 1.387.897 2 1 .405.068 1.629-1.036 2-1 .936.09 1.276.917 2 1 .758.087 1.07-.807 2-1 .45-.093 1.378.947 2 1 .768.066 1.252-.85 2-1l-2 5c-1 1-2 1-4 1s-3 0-4-1z"/></svg><svg viewBox="0 0 14 14" id="convenience"><path d="M1 7h11v.5H1zM2 9h9.5v.5H2z"/><path d="M3 5.5h.5V11H3zM5 5.5h.5V11H5zM7.5 5.5H8V11h-.5zM9.5 5.5h.5V11h-.5zM5.9 5l2-3a.506.506 0 01.93.4L7.1 5z"/><path d="M0 5h13l-2 7H2zm1.25 1h10.5l-1.5 5h-7.5z" fill-rule="evenodd"/></svg><svg viewBox="0 0 14 14" id="copyshop"><path d="M9.031-.031L1 0v10h3V9H2V1h6v2h1.031V-.031zM3 2v.5h4V2H3zm0 1v.5h1V3H3zm0 1v.5h1V4H3zm2 0v10h8V7.281L9.719 4H5zM3 5v.5h1V5H3zm3 0h3v3h3v5H6V5zm4 .688L11.313 7H10V5.687zM3 6v.5h1V6H3zm4 0v.5h1V6H7zM3 7v.5h1V7H3zm4 0v.5h1V7H7zm0 1v.5h1V8H7zm0 1v.5h4V9H7zm0 1v.5h4V10H7zm0 1v.5h4V11H7z"/></svg><svg viewBox="0 0 14 14" id="dairy"><path d="M1.297 0a.325.325 0 00-.324.324v2.324l-.94 2.14c-.016.048-.033.08-.033.128v8.76c0 .178.146.324.324.324H14V8.244H7.504l.002-3.328a.302.302 0 00-.031-.129l-.942-2.139V.324A.325.325 0 006.21 0zm.324.664h4.264v1.902H1.62zm-.049 2.227h4.346l.016.033c-.302.682-.615 1.38-.875 1.959v3.361H3.432v5.096H.656C.641 10.582.648 7.772.648 4.996zm4.54.437l.73 1.668v3.248H5.38V4.955l.002-.006zM5.308 9.08a.952.952 0 11-.003 1.905.952.952 0 01.003-1.905zm6.418.408a1.301 1.301 0 11-.002 2.603 1.301 1.301 0 01.002-2.603zm-3.63 1.533a1.101 1.101 0 110 2.203 1.101 1.101 0 010-2.203z"/></svg><svg version="1.0" viewBox="0 0 14 14" id="deli"><path d="M6 0h2c2 0 3 0 3 1v1H3V1c0-1 1-1 3-1zM4 3c0 2-2.022 1-2.016 3L2 11c.003 1 1 3 3 3h4c2 0 3-2 3-3V6c0-2-2-1-2-3zm6 4v3H4V7z" fill-rule="evenodd"/></svg><svg viewBox="0 0 14 14" id="department_store"><path d="M5 0C4 0 4 0 4 1l.01 3H1v9c0 1 0 1 1 1h10c1 0 1 0 1-1V4h-2.96L10 1c0-1 0-1-1-1H5zm0 1h4v3H5V1zm1.568 4.5c.764 0 1.325.15 1.684.445.359.296.537.65.537 1.063 0 .23-.053.451-.164.664-.108.212-.24.385-.395.517-.154.133-.43.33-.83.592.331.33.675.637 1.034.92.095-.19.178-.393.246-.605l1.474.326c-.077.27-.151.489-.222.652-.072.163-.171.357-.301.578l.709.485c.086.055.2.122.336.199L9.658 12.5a8.082 8.082 0 01-.58-.342 13.18 13.18 0 00-.533-.334 3.782 3.782 0 01-.984.473 5.42 5.42 0 01-1.55.203c-.906 0-1.58-.189-2.023-.564-.442-.376-.664-.832-.664-1.368 0-.385.131-.748.39-1.09.26-.344.685-.635 1.276-.873-.247-.298-.417-.556-.51-.775a1.738 1.738 0 01-.138-.676c0-.48.182-.874.55-1.185.369-.311.928-.469 1.676-.469zm.078 1.016a.667.667 0 00-.468.168.515.515 0 00-.18.392c0 .191.17.469.51.832.244-.132.433-.275.566-.43.133-.157.2-.306.2-.445a.464.464 0 00-.167-.363c-.11-.102-.266-.154-.46-.154zm-.812 3.037c-.26.181-.431.337-.518.467a.744.744 0 00-.127.41c0 .225.099.426.293.601.195.176.45.264.762.264.337 0 .716-.133 1.137-.395a21.128 21.128 0 01-1.547-1.347z"/></svg><svg viewBox="0 0 14 14" id="diy"><path d="M9 0a2.765 2.765 0 00-1.25 2.313 2.75 2.75 0 001.5 2.437v7.75c0 .878.521 1.5 1.25 1.5s1.25-.603 1.25-1.5V4.75a2.75 2.75 0 001.5-2.438C13.25 1.349 12.751.492 12 0v1.5L10.5 3 9 1.5V0zM4 0c-.552 0-1 .38-1 .75H1.5L.25 2.5 1.5 4.25H3v8.5c0 .685.377 1.25 1 1.25s1-.528 1-1.25v-8.5h2V.75H5C5 .372 4.623 0 4 0zm6.5 12a.5.5 0 110 1 .5.5 0 010-1z"/></svg><svg viewBox="0 0 14 14" id="doityourself"><path d="M9 0a2.765 2.765 0 00-1.25 2.313 2.75 2.75 0 001.5 2.437v7.75c0 .878.521 1.5 1.25 1.5s1.25-.603 1.25-1.5V4.75a2.75 2.75 0 001.5-2.438C13.25 1.349 12.751.492 12 0v1.5L10.5 3 9 1.5V0zM4 0c-.552 0-1 .38-1 .75H1.5L.25 2.5 1.5 4.25H3v8.5c0 .685.377 1.25 1 1.25s1-.528 1-1.25v-8.5h2V.75H5C5 .372 4.623 0 4 0zm6.5 12a.5.5 0 110 1 .5.5 0 010-1z"/></svg><svg viewBox="0 0 14 14" id="electronics"><path d="M9.375.031a.521.521 0 00-.438.157L6.031 3.124 4.125 1.187c-.212-.285-.687-.314-.938-.062-.25.252-.22.723.063.938L5.156 4H2C1 4 0 5 0 6v6c0 1 1 2 2 2h10c1 0 2-1 2-2V6c0-1-1-2-2-2H6.906l2.907-2.938c.387-.387.001-.98-.438-1.03zM6 6c3 0 4 0 4 3s-1 3-4 3-4 0-4-3 1-3 4-3zm6 .125a.875.875 0 110 1.75.875.875 0 010-1.75zm0 3a.875.875 0 110 1.75.875.875 0 010-1.75z"/></svg><svg viewBox="0 0 14 14" id="fabric"><path d="M2 0v1h1V0zm3 0v4h1V0zm3 0v1h1V0zm3 0v4h1V0zM0 2v1h4V2H0zm7 0v1h3V2H7zm6 0v1h1V2zM2 4v4h1V4zm6 0v4h1V4zM0 5v1h1V5zm4 0v1h3V5H4zm6 0v1h4V5h-4zM5 7v1h1V7zm6 0v1h1V7zM1.5 9C.669 9 0 9.669 0 10.5v2c0 .831.669 1.5 1.5 1.5h12a.499.499 0 100-1h-12a.499.499 0 01-.5-.5v-2c0-.277.223-.5.5-.5h9a.499.499 0 110 1H2v1h8.5c.831 0 1.5-.669 1.5-1.5S11.331 9 10.5 9z"/></svg><svg viewBox="0 0 14 14" id="florist"><path d="M3 0c.944 2.833-.766 6.433 3.25 6.938V12.5C6.25 11.034 3.997 8 1 8c3 2 1 6 5 6h2c4 0 2-4 5-6-2.997 0-5.25 2.945-5.25 4.5V6.938C11.753 6.45 10.056 2.833 11 0c-1 0-2.25 3-2.25 3S8 1 7 0C6 1 5.25 3 5.25 3S4 0 3 0z"/></svg><svg viewBox="0 0 14 14" id="furniture"><path d="M3 2C2 2 1 3 1 4c2 0 3 1.576 3 3h6c0-1.518 1-3 3-3 0-1-1-2-2-2zM1 5C0 5 0 6 0 6c0 .518.482 1 1 1v3c0 .645.423 1 1 1h.5s0 1 1 1 1-1 1-1h5s0 1 1 1 1-1 1-1h.5c.51 0 1-.484 1-1V7c.495 0 1-.388 1-1 0 0 0-1-1-1s-2 1-2 3H3c0-2-1-3-2-3z"/></svg><svg viewBox="0 0 14 14" id="garden_centre"><path d="M10 1C8.001.932 5.513 2.391 6 6l.75 3-3.21-2-.045-2-.8-1C2 4 0 6.354 0 7.25L1.306 8 3 7.704 8 14h4.422L14 6c0-5-3.313-4.977-4-5zm0 1.399C12 2.418 13 4 12.531 6H7.516C7 4 7.46 2.399 10 2.399z" fill-rule="evenodd"/></svg><svg viewBox="0 0 14 14" id="gift"><path d="M4.375.5c-.875 0-1.75.613-1.75 1.75S3.145 4 4.281 4h5.375c1.136 0 1.719-.583 1.719-1.719C11.375 1.144 10.5.5 9.625.5 8.299.5 7.333 1.303 7 2.469 6.666 1.303 5.73.5 4.375.5zm0 .875c1.417 0 1.656 1.12 1.75 1.75h-1.75c-.92 0-.875-.837-.875-.875 0-.038-.045-.875.875-.875zm5.25 0c.875 0 .875.837.875.875 0 .038.045.875-.875.875h-1.75c.094-.63.332-1.75 1.75-1.75zM4 5C3 5 2 6 2 7v1.75h4.25V5H4zm3.75 0v3.75H12V7c0-1-1-2-2-2H7.75zM2 10.25V12c0 1 1 2 2 2h2.25v-3.75H2zm5.75 0V14H10c1 0 2-1 2-2v-1.75H7.75z"/></svg><svg viewBox="0 0 14 14" id="greengrocer"><path d="M7.681.385C7.107.958 6.644 1.78 6.5 2.5c-.079.393-.114 1.326-.125 1.781.208.122.416.219.625.375.221-.166.436-.279.656-.406.018-.395.038-1.222.094-1.5a2.95 2.95 0 01.806-1.49zM.5 1c.536 2 2.854 3 5 2C4.597 1 3 .362.5 1zM2 5.25C1.386 5.894 1 7 1 8c0 2 2 5.5 4 5.5.564 0 1-.25 2-.75 1 .5 1.436.75 2 .75 2 0 4-3.5 4-5.5 0-1-.326-2.106-1-2.75-1.022-.977-3-1-5 .5-2-1.414-4-1.605-5-.5z"/></svg><svg viewBox="0 0 14 14" id="hairdresser"><path d="M4 0v9.531C3.58 9.212 3.065 9 2.5 9A2.508 2.508 0 000 11.5C0 12.875 1.125 14 2.5 14a2.5 2.5 0 002.438-2h.125A2.5 2.5 0 007.5 14c1.375 0 2.5-1.125 2.5-2.5S8.875 9 7.5 9c-.565 0-1.08.212-1.5.531V0zm4 0v2h4v1H8v1h4v1H8v1h4v1H8v1h4v6h2V2c0-1-1-2-2-2zM2.5 10c.834 0 1.5.666 1.5 1.5S3.334 13 2.5 13 1 12.334 1 11.5 1.666 10 2.5 10zm5 0c.834 0 1.5.666 1.5 1.5S8.334 13 7.5 13 6 12.334 6 11.5 6.666 10 7.5 10z"/></svg><svg viewBox="0 0 14 14" id="hifi"><path d="M8.512 9.535a1.5 1.5 0 01-1.5 1.5 1.5 1.5 0 01-1.5-1.5 1.5 1.5 0 011.5-1.5 1.5 1.5 0 011.5 1.5zM2 0v14h10V0H2zm5.07.969a2 2 0 110 4 2 2 0 010-4zm-.06 5.02a3.5 3.5 0 013.5 3.5 3.5 3.5 0 01-3.5 3.5 3.5 3.5 0 01-3.5-3.5 3.5 3.5 0 013.5-3.5z" fill-rule="evenodd"/></svg><svg version="1.0" viewBox="0 0 14 14" id="houseware"><path d="M10 3H4.827c-.305.721-1.238 1.25-2.356 1.25C1.106 4.25 0 3.466 0 2.5S1.106.75 2.471.75c1.118 0 2.051.529 2.355 1.25H10v1zM1 8.402V12a2 2 0 002 2h4a2 2 0 002-2V8.402H1zM10 8V7H7a1 1 0 00-1-1H4a1 1 0 00-1 1H0v1h10zm2 6v-3h1.5c0-4.021-.5-8-2.5-10v13h1z"/></svg><svg viewBox="0 0 14 14" id="ice_cream"><path d="M5 0a3 3 0 00-3 3c0 .356.074.684.188 1h5.624C7.926 3.684 8 3.356 8 3a3 3 0 00-3-3zm4 0c-.404 0-.773.105-1.125.25A3.96 3.96 0 019 3a3.8 3.8 0 01-.156 1h2.969c.113-.316.187-.644.187-1a3 3 0 00-3-3zM3.25 5L7 14l3.75-9h-7.5z"/></svg><svg viewBox="0 0 14 14" id="interior_decoration"><path d="M1.307 0L0 4.813h2.861v8.066H1.516V14H5.33v-1.121H3.984V4.813h2.862L5.527 0h-4.22zm9.94.543a1.19 1.19 0 00-1.142.86 1.19 1.19 0 00-.283-.036 1.19 1.19 0 00-1.19 1.19 1.19 1.19 0 00.483.953 1.19 1.19 0 00-.482.955 1.19 1.19 0 001.19 1.19 1.19 1.19 0 00.298-.04 1.19 1.19 0 00.717.74v2.301H8.543L9.596 14h3.363L14 8.656h-2.35V6.357a1.19 1.19 0 00.758-.863 1.19 1.19 0 00.403.074A1.19 1.19 0 0014 4.378a1.19 1.19 0 00-.375-.862A1.19 1.19 0 0014 2.65a1.19 1.19 0 00-1.19-1.19 1.19 1.19 0 00-.392.071 1.19 1.19 0 00-1.172-.988zm.07 2.059a.884.884 0 01.884.884.884.884 0 01-.885.885.884.884 0 01-.884-.885.884.884 0 01.884-.884z" fill-rule="evenodd" paint-order="stroke fill markers"/></svg><svg viewBox="0 0 14 14" id="jewellery"><path d="M5.5-.031l-1.5 2h6l-1.5-2h-3zm-1.5 3l3 2.75 3-2.75H4zm-.125 2.125C2.76 6.022 2 7.423 2 8.969 2 11.717 4.34 14 6.969 14c2.63 0 4.969-2.283 4.969-5.031 0-1.534-.742-2.916-1.844-3.844L8.97 6.156c.92.673 1.563 1.764 1.563 2.813 0 1.711-1.732 3.469-3.563 3.469-1.83 0-3.531-1.758-3.531-3.47 0-1.055.662-2.14 1.593-2.812L3.875 5.094z"/></svg><svg viewBox="0 0 14 14" id="jewelry"><path d="M5.5-.031l-1.5 2h6l-1.5-2h-3zm-1.5 3l3 2.75 3-2.75H4zm-.125 2.125C2.76 6.022 2 7.423 2 8.969 2 11.717 4.34 14 6.969 14c2.63 0 4.969-2.283 4.969-5.031 0-1.534-.742-2.916-1.844-3.844L8.97 6.156c.92.673 1.563 1.764 1.563 2.813 0 1.711-1.732 3.469-3.563 3.469-1.83 0-3.531-1.758-3.531-3.47 0-1.055.662-2.14 1.593-2.812L3.875 5.094z"/></svg><svg viewBox="0 0 14 14" id="kiosk"><path d="M2 0L0 3c0 1.042.23 2 1.75 2S3.497 4 3.5 3l1.25-3H2zm4 0l-.75 3c0 1.017.16 2 1.75 2s1.747-1.023 1.75-2L8 0H6zm3.25 0l1.25 3c0 1.023.324 2 1.75 2S14 3.983 14 3l-2-3H9.25zM1 6v8h12V6H1zm3 2h6c.565 0 1 .505 1 1v2H3V9c0-.542.505-1 1-1z"/></svg><svg viewBox="0 0 14 14" id="laundry"><path d="M9.5 8.5a2.5 2.5 0 01-5 0M1 0v14h12V0H1zm2 1h5v2H3V1zm7 0h2v2h-2V1zM7 5c1.605 0 3.015 1.1 3.406 2.656l.094.844A3.5 3.5 0 117 5z" fill-rule="evenodd"/></svg><svg viewBox="0 0 14 14" id="marketplace"><path d="M0 0v2a2 2 0 002 2 2 2 0 002-2h1a2 2 0 002 2 2 2 0 002-2h1a2 2 0 002 2 2 2 0 002-2V0H0z"/><path d="M0 5v9h2v-3h10v3h2V5h-2v4H2V5H0z" style="line-height:normal;text-indent:0;text-align:start;text-decoration-line:none;text-decoration-style:solid;text-decoration-color:#000;text-transform:none;block-progression:tb;white-space:normal;isolation:auto;mix-blend-mode:normal;solid-color:#000;solid-opacity:1" color="#000" font-weight="400" font-family="sans-serif" overflow="visible" fill-rule="evenodd"/></svg><svg viewBox="0 0 14 14" id="massage"><path d="M5.545 1a1.5 1.5 0 00-1.5 1.5 1.5 1.5 0 001.5 1.5 1.5 1.5 0 001.5-1.5 1.5 1.5 0 00-1.5-1.5zM4.33 4.51c-.39.051-.74.319-.873.705L2.158 9h2.069l.947-2.758L6.19 7.29c.016.016.036.024.053.037.017.015.038.025.057.037.03.018.058.036.09.047.016.007.029.019.046.024l1.924.54a.5.5 0 10.272-.96l-1.809-.51-1.658-1.705c-.012-.012-.027-.017-.039-.028a.909.909 0 00-.402-.236 1.025 1.025 0 00-.395-.025zM11.5 8A1.5 1.5 0 0010 9.5a1.5 1.5 0 001.5 1.5A1.5 1.5 0 0013 9.5 1.5 1.5 0 0011.5 8zM1 10c-.554 0-1 .446-1 1s.446 1 1 1h8.195l2.059.95c.067.03.137.042.205.042.014.001.026.008.041.008h2a.499.499 0 100-1h-1.94l-4.216-1.947a.467.467 0 00-.25-.033C7.06 10.016 7.034 10 7 10H1z"/></svg><svg viewBox="0 0 14 14" id="medical_supply"><path d="M13.82 0l-3.345.242V.25l-.01-.002-.53 4.398h-5.32v1.417h2.337a4.233 4.21 0 00-1.97 2.182h-2.94v.053l-.618 2.054a1.867 1.857 0 00-1.376 1.791A1.867 1.857 0 001.915 14a1.867 1.857 0 001.867-1.858 1.867 1.857 0 00-.928-1.601l.121-.407h1.723A4.233 4.21 0 008.915 14a4.233 4.21 0 004.233-4.211 4.233 4.21 0 00-1.532-3.238l.607-5.016 1.73-.125zM8.942 7.239a2.623 2.616 0 012.622 2.616 2.623 2.616 0 01-2.622 2.616A2.623 2.616 0 016.32 9.855 2.623 2.616 0 018.943 7.24z" stroke-width="4" stroke-linecap="round" stroke-linejoin="round"/></svg><svg viewBox="0 0 14 14" id="mobile_phone"><path d="M6 0c-.483 0-1 .388-1 1v1c-1.119.082-2 .905-2 2v8c0 1.149.803 2 2 2h4c1.197 0 2-.851 2-2V4c0-1.149-.803-2-2-2H7V1c0-.636-.517-1-1-1zM4 4h6v7H4V4zm2 8h2v1H6v-1z"/></svg><svg viewBox="0 0 14 14" id="motorcycle"><path d="M11.656 5.826c.299.21.473.441.558.734.028.097.03.117.03.315 0 .182-.001.23-.023.332a2.89 2.89 0 01-.213.614l-.04.089-.14.009c-.507.03-.915.132-1.27.323-.76.408-1.238 1.175-1.474 2.364l-.02.095-.1.102a1.666 1.666 0 01-.164.15c-.328.233-.8.373-1.468.44-.3.03-.501.035-1.47.045-.568.006-1.036.014-1.04.017a.13.13 0 01-.047.006c-.05 0-.047.022-.018-.24.045-.405.04-.875-.013-1.215-.151-.978-.687-1.62-1.597-1.913-.4-.129-.75-.175-1.35-.186l-.383-.009-.026-.028a.761.761 0 01-.157-.58.667.667 0 01.127-.266l1.077-1.236c2.336-.008 2.96.005 5.191.027.124.033.689 1.309.748 1.414a1.016 1.016 0 01.096.292c.015 0 .223-.093.33-.149.284-.147.64-.726.821-.963.172-2.281-2.643-8.336 2.035-.583zm-.109 2.353c.68-.053 1.35.221 1.825.749a2.51 2.51 0 01.388 2.733c-.357.751-1.061 1.259-1.85 1.333a2.308 2.308 0 01-.93-.115 2.363 2.363 0 01-1.453-1.538 2.538 2.538 0 01.213-1.999c.393-.679 1.053-1.105 1.807-1.163zm-9.254.005c.278 0 .357.01.558.063.907.242 1.583 1.037 1.713 2.013.024.18.024.496 0 .666-.115.814-.588 1.488-1.287 1.842-.222.112-.501.197-.753.225a2.839 2.839 0 01-.608-.022C.94 12.795.2 12.016.027 10.984a3.032 3.032 0 01-.007-.75c.078-.525.3-.981.654-1.352a2.25 2.25 0 011.242-.678c.087-.017.163-.02.377-.02zm9.34.827c-.45.022-.856.25-1.13.632-.086.118-.2.36-.238.5a1.628 1.628 0 00.76 1.856c.085.045.26.11.365.134.129.03.423.04.55.017.613-.107 1.09-.583 1.232-1.224.032-.147.04-.435.015-.586-.13-.807-.786-1.368-1.554-1.33zm-9.335.005c-.27 0-.466.049-.692.172a1.583 1.583 0 00-.786 1.08 2.23 2.23 0 00-.01.573c.056.371.256.736.53.969.211.179.452.294.705.337.125.022.387.022.5 0 .889-.17 1.433-1.09 1.185-2.004a1.564 1.564 0 00-.937-1.04 1.274 1.274 0 00-.495-.087z"  fill-rule="evenodd"/></svg><svg viewBox="0 0 14 14" id="music"><path d="M6.07 0L4.126.307c-.015 3.287-.028 6.575-.04 9.863l-.549-.04c-1.328-.093-2.733.561-3.35 1.56-.227.367-.25.95-.05 1.267.311.495 1.051.91 1.856 1.043 1.85-.053 3.176-.7 4.075-2.033L6.07 0zm.94.02A6.99 6.985 0 006.99.02v.983a5.989 6.006 0 015.978 6.006 5.989 6.006 0 01-5.99 6.006 5.989 6.006 0 01-.491-.026l-.868.856a6.99 6.985 0 001.392.144A6.99 6.985 0 0014 7.006 6.99 6.985 0 007.01.02zM3.026 1.268A6.99 6.985 0 00.021 7.006a6.99 6.985 0 00.646 2.916l.873-.414A5.989 6.006 0 01.99 7.01a5.989 6.006 0 012.037-4.504zM6.99 5v1a1.033 1 0 01.017 0A1.033 1 0 018.04 7a1.033 1 0 01-1.034 1 1.033 1 0 01-.017-.002V9a2 2 0 001.987-2 2 2 0 00-1.987-2z"/></svg><svg viewBox="0 0 14 14" id="musical_instrument"><path d="M11 6c1 0 2 1 2 2v2c.003.947-1 2-2 2H6c-1 0-2-1-2-2V8c0-1 1-2 2-2h1C5 7 5 7 5 9c0 .558.515.961 1 1h5c.605 0 1-.442 1-1 0-2 0-2-2-3.005zM7 3v1.988L5 5v1h2v2h1V6h1v2h1V6h3c0 1 1 1 1 1V4s-1 0-1 .953l-3 .018V3H9v1.977l-1 .005V3H7zm-7 7V1c3 0 3 4 5 4v1c-2 0-2 4-5 4z" fill-rule="evenodd"/></svg><svg viewBox="0 0 14 14" id="news"><path d="M1 1v13h12V1zm1 1h10v11H2zm1 1v2h8V3zm0 3v.5h3V6zm5 4v.5h3V10zM3 7v.5h3V7zm5 4v.5h3V11zM3 8v.5h3V8zm0 1v.5h3V9zm5-3v3h3V6zm-5 4v.5h3V10zm0 1v.5h3V11z"/></svg><svg viewBox="0 0 14 14" id="newsagent"><path d="M7 11h4v.537l-4 .022zm0-1h4v.537l-4 .022zm0-4h4v3H7zM2 6l4 .023v.537L2 6.56zm0 5h4v.537l-4 .022zm0-1h4v.537l-4 .022zm0-1l4 .023v.537L2 9.56zm0-1l4 .023v.537L2 8.56zm0-1h4v.537l-4 .022zm0-5v2.51l9 .047V2zM0 0v14h13V0zm1 1h11v12H1z"/></svg><svg viewBox="0 0 14 14" id="optician"><path d="M5 3L0 6c0 2 .25 5 1.25 5H5c1 0 1.25-3.5 1.25-3.5.517-.25.983-.25 1.5 0C7.75 7.5 8 11 9 11h3.75c1 0 1.25-3 1.25-5L9 3c-.479-.276-.873.746 0 1.25L12 6H2l3-1.75c.923-.533.365-1.46 0-1.25zM1.25 7.25H5l-.5 2.5H1.75zm7.75 0h3.75l-.5 2.5H9.5z"/></svg><svg viewBox="0 0 16 16" id="other"><circle cx="8" cy="8" r="3"/></svg><svg viewBox="0 0 14 14" id="outdoor"><path d="M5.5 1.016a1.5 1.5 0 00-1.5 1.5 1.5 1.5 0 001.5 1.5 1.5 1.5 0 001.5-1.5 1.5 1.5 0 00-1.5-1.5zM10 2L8 3l3 6 2-1-3-6zM8 4L6 5l.295 1.47L4 8 1 7v1l3 2 2.646-1.766L7 10l3-1-2-5zM1 9v5h1V9H1zm9 1l-3 1-2 3h1.834l1.531-2L9 14h2l-1-4z" fill-rule="evenodd"/></svg><svg viewBox="0 0 14 14" id="paint"><path d="M1 0C.446 0 0 .446 0 1v2c0 .554.446 1 1 1h10c.554 0 1-.446 1-1v-.5h1V5H6v2H5v7h3V7H7V6h7V1.5h-2V1c0-.554-.446-1-1-1z"/></svg><svg viewBox="0 0 14 14" id="perfumery"><path d="M14 2.5c0 1.16-1.12 2.101-2.5 2.101S9 3.661 9 2.5C9 1.34 10.12.399 11.5.399S14 1.339 14 2.5zM8 2h2v1H8zM3 0h1v1H3zM1 0h1v1H1zm0 4h1v1H1zm2 0h1v1H3zm1-2h1v1H4zM2 2h1v1H2zM0 2h1v1H0zm6 3.422L8 5.4V2c0-1 0-1-1-1-.966.017-1 0-1 1zM5 6c-2 0-3.531 3-3.531 5C1.469 12 4 14 5 14h4c1 0 3.414-2 3.414-3C12.414 9 11 6 9 6z"/></svg><svg viewBox="0 0 14 14" id="pet"><path d="M9.413.002c-1.244.144-1.95 1.507-2.04 2.692-.147 1.052.313 2.396 1.419 2.638.958.086 1.72-.815 2.034-1.674.37-1.075.38-2.51-.517-3.315a1.342 1.342 0 00-.896-.34zM4.34.06C3.305.133 2.775 1.336 2.847 2.3c.009 1.291.717 2.743 2.01 3.05.964.103 1.607-.919 1.667-1.813C6.647 2.17 6.04.513 4.668.1A1.123 1.123 0 004.34.059zm8.315 4.145c-1.388.101-2.266 1.581-2.327 2.918-.073.87.49 1.966 1.437 1.906 1.417-.15 2.27-1.73 2.235-3.1-.009-.79-.51-1.691-1.345-1.724zM.011 6.009C-.118 7.49.919 9.165 2.425 9.258c.913-.061 1.343-1.121 1.238-1.96-.083-1.238-.91-2.505-1.985-2.67C.602 4.462-.006 5.222.01 6.008zm7.148 1.263c-1.412.004-2.702.927-3.393 2.176-.578.933-1.05 1.99-1.14 3.105.02.86.84 1.576 1.663 1.405 1.173-.153 2.222-.968 3.443-.815 1.014.081 1.85.868 2.875.856.994.037 1.567-1.102 1.188-1.995-.408-1.277-1.199-2.389-2.048-3.39-.677-.738-1.565-1.374-2.588-1.342z"/></svg><svg viewBox="0 0 14 14" id="photo"><path d="M1.9 3.983C0 4 0 4.196 0 5.99l.016 6.043C0 14 0 14 1.93 14.035l10.122-.036C14 14 14 14 14.05 11.98V5.997C14 4 14 4 12.051 3.992zM8 5.016a4 4 0 110 8 4 4 0 010-8zM1.984 1.98h1.032C4 2 4 3 4.032 3.49l-2.982.033C1 3 1 2 1.984 1.982zm8.522 7.057a2.5 2.5 0 11-5 0 2.5 2.5 0 015 0zM9.001.982l-.017 2.605 5.032-.016.017-2.703C14 0 14 0 13.018.002l-2.961.012C9 0 9 0 9 .982zm1.103.049l2.914-.017L13.05 3l-2.915.016z"/></svg><svg viewBox="0 0 14 14" id="seafood"><path d="M6 3C3 3 0 5 0 7s3 4 6 4c2.243-.023 5-2 5-4S8 3 6 3zm5 4c0 2 1.634 3.274 3 4 0-2-.667-2.667-1-4 .333-1.333 1-2 1-4-1.229.665-3 2-3 4zM2.982 5A1 1 0 014 5.977V6a1 1 0 01-.994 1A1 1 0 012 6.012 1 1 0 012.982 5z" fill-rule="evenodd"/></svg><svg viewBox="0 0 14 14" id="second_hand"><path d="M5 0C4 0 4 0 4 1l.01 3H1v9c0 1 0 1 1 1h10c1 0 1 0 1-1V4h-2.96L10 1c0-1 0-1-1-1H5zm0 1h4v3H5V1zm2.506 4l.203.037a4.052 4.052 0 013.094 2.592c.12.333.195.676.224 1.017.082.945-.228 1.86-.765 2.63h.367a.49.49 0 01.488.486l-.002.373a.489.489 0 01-.488.484l-2.34-.004a.304.304 0 01-.3-.3l.003-2.329a.49.49 0 01.49-.484l.375.002c.268 0 .487.22.487.486v.125c.302-.633.444-1.339.193-2.03A2.705 2.705 0 007.471 6.36l-.203-.035L7.506 5zm-4.133.38l2.34.007c.164 0 .301.135.3.299l-.005 2.328a.49.49 0 01-.488.486l-.375-.002a.487.487 0 01-.485-.486l-.002-.13c-.304.634-.445 1.338-.193 2.03a2.708 2.708 0 002.062 1.73l.205.036L6.494 13l-.205-.037a4.051 4.051 0 01-3.092-2.594c-.457-1.256-.168-2.592.567-3.642h-.395a.489.489 0 01-.486-.487v-.373c0-.266.223-.486.49-.486z"/></svg><svg viewBox="0 0 14 14" id="shoes"><path d="M.75 3S0 5.25 0 8.25h5.5c.5 0 1.306 1 1.3 1H14c0-3-3-3.25-4-3.25H8C7 4 5 3 5 3h-.25C4 4.508 2.016 4.508 1 3zM5.5 4a.5.5 0 110 1 .5.5 0 010-1zm1 1a.5.5 0 110 1 .5.5 0 010-1zM0 9v2h5.25V9zm7.3 1s.7 1 1.2 1H14v-1z"/></svg><svg viewBox="0 0 14 14" id="sports"><path d="M5.543 1.276a1.268 1.26 0 01-1.267 1.26 1.268 1.26 0 01-1.268-1.26A1.268 1.26 0 014.276.016a1.268 1.26 0 011.267 1.26zm6.852 8.559l-2.68.689c-.11.028-.353.003-.445-.02-.235-.045-.303-.155-.395-.269L7.606 8.144 6.01 9.857l.645 3.202a.62.62 0 01.03.172.769.769 0 01-.199.53.618.618 0 01-.476.223c-.347 0-.562-.2-.644-.6l-.783-3.887c-.092-.411-.051-.714.123-.908L6.102 7.03 4.583 5.06l-.982 1.097a.464.464 0 01-.353.17c-.174 0-.342-.085-.506-.256L1.146 4.29a.634.634 0 01-.122-.377c0-.171.053-.314.16-.428a.5.5 0 01.377-.172.43.43 0 01.337.137l1.32 1.474 1.596-1.782c.122-.137.28-.246.46-.205l3.474.773c.15.033.26.175.372.312l.772 1.33a.56.56 0 01.184.428c0 .16-.051.297-.153.411a.478.478 0 01-.369.171.504.504 0 01-.399-.205l-.896-1.5-1.455-.247 3.02 4.687 2.46-.706c.194 0 .372.04.505.176.133.137.268.259.268.476a.765.765 0 01-.218.526.855.855 0 01-.444.266z" fill-rule="evenodd"/></svg><svg viewBox="0 0 14 14" id="stationery"><path d="M5 10V2c0-1 0-1 1-1h1c1 0 1 0 1 1l-.01 7.008h-1L7 3H6c0 1.667-.01 4.342-.01 6.008 0 1 0 .983 1.01.992l.99.008c1 0 1 0 1-1L9 2c.003-2 0-2-2-2H6C4 0 4 0 4 2v8c0 1 0 1 2.655 3.669.207.3.345.331.882.331.463 0 .659.016.966-.314C11 11 11 11 11 10V2h-1v8c0 .49-2 3.223-2.437 3C7 13.16 5 10.649 5 10z" fill-rule="evenodd"/></svg><svg viewBox="0 0 14 14" id="supermarket"><path d="M3.5 3.5H4v5h-.5zM5.5 3.5H6V9h-.5zM7.5 3.5H8v6h-.5zM9.5 3.5h.5v6h-.5z"/><path d="M1 5h10.5v.5H1zM1 7h10.5v.5H1z"/><g transform="translate(0 1)"><circle r="1" cy="11.2" cx="9.5"/><circle r="1" cy="11.2" cx="3.5"/></g><path d="M11 10v2H1.5a.5.5 0 110-1H10V9.5zM11.5 3l.268-1.25 1.482-.55a.553.553 0 11.35 1.05l-1 .35-.1.4"/><path d="M0 3h12.5L11 10 1 9m.167-5h10.119L10.25 8.9 1.9 8.1z" fill-rule="evenodd"/></svg><svg viewBox="0 0 14 14" id="tea"><path d="M6.832 1.898a1.206.949 0 00-1.205.95 1.206.949 0 00.84.904c-1.378.111-2.568.82-3.266 1.865-.014-.006-.027-.02-.04-.025-.65-.264-1.623-.397-2.253.012C.295 6 .037 6.712.002 7.6c-.071 1.803 1.28 2.164 2.627 2.345.109.015.217.007.324.002.296.854.737 1.656 1.307 2.057h5.146c.613-.432 1.077-1.33 1.37-2.256.233.047.487.002.837-.277.61-.485 1.246-1.447 1.453-1.916.375-.812.934-3.725.934-3.725s-.881.24-1.584-.004c-.155.527-.347 1.523-.639 1.998-.25.41-.42.765-.834.83-.48-1.584-1.95-2.758-3.748-2.902a1.206.949 0 00.842-.904 1.206.949 0 00-1.205-.95zm-4.853 4.25c.322-.01.592.093.833.23a3.81 3.81 0 00-.275 1.386c0 .391.066.872.182 1.37-.774-.012-1.686-.11-1.633-1.462.03-.754.233-1.409.607-1.488.1-.022.194-.033.286-.036z"/></svg><svg viewBox="0 0 14 14" id="ticket"><path d="M0 3v3h1a1 1 NaN 011 1 1 1 NaN 01-1 1H0v3h14V8h-1a1 1 NaN 01-1-1 1 1 NaN 011-1h1V3H0zm8 1h1v6H8V4z" style="line-height:normal;font-variant-ligatures:normal;font-variant-position:normal;font-variant-caps:normal;font-variant-numeric:normal;font-variant-alternates:normal;font-feature-settings:normal;text-indent:0;text-align:start;text-decoration-line:none;text-decoration-style:solid;text-decoration-color:#000;text-transform:none;text-orientation:mixed;white-space:normal;shape-padding:0;isolation:auto;mix-blend-mode:normal;solid-color:#000;solid-opacity:1" color="#000" font-weight="400" font-family="sans-serif" overflow="visible" stroke="none" stroke-width="1.1"/></svg><svg viewBox="0 0 14 14" id="tobacco"><path d="M2 11h1v3H2zm-1-1c.667-1 2-2 2-3S0 5 0 3s2-2 4-3c-.333 1.333-2 2-2 3 1 1 3 2 3 4s-1 2-4 3zm-1 1h1v3H0zm14 3H4v-3h10z" fill-rule="evenodd"/></svg><svg viewBox="0 0 14 14" id="toys"><path d="M3 0v2C2.303 2.367.52 3.74.312 4c-.2.249-.218 2.054.126 2 .6-.092 2.634-1.736 3.156-1.375.52.36.371 2.052.406 3.375-.711.916-.951 1.915-1.625 2.656-.331-.3-.683-.589-1.063-.969a.58.58 0 00-.804.008c-.222.305-.251.677.015.922 2.015 2.015 3.93 3.078 6.758 3.078 2.73 0 4.081-1.08 6.102-3.101.219-.148.296-.735.11-.922-.188-.187-.657-.203-.806.015-.349.35-.656.624-.968.907C10.78 9.328 10.903 9.006 10 6c2.132-.547 2.593 1.71 4 2.343V6c0-1-2.297-.971-4-.563C9.672 5 9 4 6.633 4.423 6.337 3 5.844 2.648 4.516 2zm2 8c1 .665 3.305.61 4 0 .84.541 1.549 2.063 2.031 3.188-1.18.926-2.295 1.374-4.031 1.374-1.714 0-2.786-.391-3.875-1.218C3.944 10.073 4.066 9.868 5 8z"/></svg><svg viewBox="0 0 14 14" id="trade"><path d="M3 0v4h7V0H7v2H6V0zM0 5v5h5V5H3v2H2V5zm6 0v5h8V5zm-6 6v3h2v-2h4v2h2v-2h4v2h2v-3z" paint-order="markers stroke fill"/></svg><svg viewBox="0 0 14 14" id="travel_agency"><path d="M0 9c0-1 0-1 1-1h7c1 0 1 0 1 1v4c0 1 0 1-1 1H1c-1 0-1 0-1-1V9zm13-4.969V7h1V4.031h-1zm-1.781-.343L9.594 6.155l.812.532 1.656-2.438-.843-.563zM9.938 2.03L7.124 3.187l.375.907 2.813-1.125-.376-.938zM7-.03v1L10.094 1V0L7-.031zM3 8V6.296h3V8h1V6c0-1 0-1-1-1H3C2 5 2 5 2 6v2zm11.727-6.513a2 2 0 11-.06-.487" fill-rule="evenodd"/></svg><svg viewBox="0 0 13.13 13.13" id="tyres"><path d="M8.22.025c2.112 0 3.822 2.933 3.822 6.55 0 3.615-1.71 6.55-3.821 6.55-2.11 0-3.821-2.935-3.821-6.55 0-3.617 1.71-6.55 3.82-6.55zm-1.637 6.55c0 2.074.856 3.74 1.91 3.74 1.092 0 1.911-1.676 1.911-3.742 0-2.068-.855-3.743-1.91-3.743-1.092 0-1.91 1.675-1.91 3.743zM8.493 3.3c-.306 0-.588.253-.816.666.336.675.544 1.593.544 2.61 0 1.09-.209 1.931-.546 2.608.23.415.51.666.819.666.754 0 1.364-1.463 1.364-3.275 0-1.81-.611-3.275-1.364-3.275zM3.855 6.575C3.854 3.125 5.3.298 7.13.025V0H5.492C3.078.025 1.125 2.95 1.125 6.575c0 3.616 1.953 6.55 4.367 6.55h1.616c-1.809-.278-3.254-3.1-3.254-6.55z"/></svg><svg viewBox="0 0 14 14" id="variety_store"><path d="M5 0C4 0 4 0 4 1l.01 3H1v9c0 1 0 1 1 1h10c1 0 1 0 1-1V4h-2.96L10 1c0-1 0-1-1-1zm4 1v3H5V1zM5 5h3v7H5v-1h2V9H5zm4 0h3v7H9v-1h2V9H9zM6 6v2h1V6zm4 0v2h1V6zm-8 5h2v2.49H3V12H2z"/></svg><svg viewBox="0 0 3.7 3.7" id="video"><path d="M3.702.005a1.849 1.849 0 10.002 3.7c.003-.262-.006-.005 0-.265a1.578 1.578 0 01-1.579-1.585c0-.877.708-1.587 1.582-1.59v-.26h-.005zM0 .265v3.44h2.292V3.44H.794V2.117h.794v-.265H.794V.53h1.323V.265H0zm.265.264h.264v.265H.265V.529zm0 .53h.264v.264H.265v-.265zm3.442.264a.529.529 0 000 1.058v-.265h-.004a.269.269 0 01-.274-.264.269.269 0 01.278-.264v-.265zm-3.442.265h.264v.264H.265v-.264zm0 .529h.264v.264H.265v-.264zm0 .529h.264v.264H.265v-.264zm0 .529h.264v.265H.265v-.265z"/></svg><svg viewBox="0 0 14 14" id="video_games"><path d="M3.22 3.825c-.473.113-.76.276-1.12.642-.412.411-.721.884-.952 1.476-.307.65-.519 1.36-.67 2.015C.134 9.473.053 10.99.134 11.703c.186.844.4 1.317.794 1.706.406.405.704.535 1.295.563.58.028 1.014-.079 1.43-.355.321-.214 1.16-1.087 1.656-1.734l.332-.44 1.47-.01c.81-.006 1.47 0 1.47.016.31.453.689.885 1.041 1.307.743.867 1.408 1.227 2.258 1.227.608 0 .98-.157 1.408-.591.63-.642.782-1.149.777-2.562 0-1.047-.057-1.588-.276-2.675-.29-1.15-.685-2.383-1.346-3.277-.169-.225-.422-.512-.574-.636-.856-.704-2.602-.653-3.503.107-.162.116-.404.25-.551.321a3.518 3.518 0 01-.344.146c-.096.074-.552.08-.71.006-.067-.034-.239-.079-.394-.158-.544-.313-1.11-.693-1.599-.822a3.428 3.428 0 00-1.548-.017zm1.346 2.23c.118.113.13.169.13.665 0 .343.016.647.016.647s.31.028.636.028c.434 0 .535.017.665.119.079.061.135.135.118.163.03.199.02.373-.124.518-.118.112-.214.089-.715.111l-.597.017v.666c-.022.529-.114.636-.21.704-.287.174-.556.135-.702-.164-.073-.14-.099-.326-.101-.687l-.004-.55s-.757-.005-1.117-.03c-.293-.102-.377-.45-.174-.715.112-.14.152-.146.692-.163l.614-.017.019-.571c.039-.648.022-.655.246-.837a.519.519 0 01.608.096zm6.117.173c.55.69-.476 1.52-1.043.859-.606-.648.403-1.595 1.043-.859zM9.517 7.327c.593.696-.382 1.637-1.035.96-.715-.744.41-1.692 1.035-.96zm2.354-.111c.712.674-.246 1.667-.93.998-.729-.711.288-1.607.93-.998zm-.895 1.741c.015 1.006-1.381.928-1.4-.007-.021-.922 1.348-.915 1.4.007z"/><path d="M1.332-.06c-.028.528.267.92.624 1.286.356.365.825.697 1.35.951.524.254 1.103.43 1.691.437.588.007 1.205-.179 1.658-.65.646-.671 1.217-.693 1.52-.571.152.06.237.155.273.244.035.087.043.181-.04.338-.279.445-.686.878-1.054 1.36-.371.485-.722 1.055-.719 1.762l1.043-.005c-.002-.355.182-.703.504-1.124.323-.422.765-.883 1.12-1.456l.006-.01.007-.012c.221-.4.253-.862.1-1.243a1.508 1.508 0 00-.852-.822c-.766-.306-1.796-.081-2.66.817-.23.24-.515.334-.894.33-.379-.004-.831-.13-1.25-.333A3.943 3.943 0 012.702.498c-.254-.261-.327-.51-.328-.501z"/></svg></svg>
